<svg id="Layer_1" data-name="Layer 1" xmlns="http://www.w3.org/2000/svg" xmlns:xlink="http://www.w3.org/1999/xlink" width="134.74499mm" height="59.51847mm" viewBox="0 0 381.9543 168.71378"><defs><style>.cls-1{fill:#e8e2d3;}.cls-2{fill:#e8ddcf;}.cls-3{fill:#e8e1d8;}.cls-4{fill:#e8ddce;}</style><symbol id="Goat_Title" data-name="Goat Title" viewBox="0 0 381.954 168.714"><path class="cls-1" d="M91.241,33.2874c1.9191-1.31643,5.44909-30.63859,1.70134-31.47511C75.16448-2.15584,49.33324-1.11143,26.72137,20.53823,15.44443,31.3353,9.6973,44.53577,7.7118,58.14859,7.14973,62.00219,0,65.65228,0,69.27225,0,72.02925,7.09014,76.517,7.46221,79.85c3.17417,28.43395,19.5267,52.5176,30.60619,58.08646,19.30807,9.70475,43.00529,8.42179,53.86946,2.9044,6.17281-3.13487,6.35712-47.4197,4.40717-56.51269-1.29144-6.02223,12.349-13.65672,8.49631-15.7832-9.54618-5.269-40.94373,12.86617-43.58984,16.03755-2.98279,3.5749-1.29168,4.816,1.43988,6.769,4.75263,3.398,14.59107-7.75688,14.76491-3.13671.25275,6.71727.03954,40.00244-3.13467,46.37514-2.56642,5.15247-33.09778,2.26086-37.99891-18.47469-3.58763-15.17844-6.09425-24.89525-7.752-37.60252-.354-2.71328,7.32661-8.64291,7.13469-11.6177-.20279-3.14323-8.9217-5.70633-8.9823-8.322q-.062-2.67574-.00171-5.30288c.62611-26.64751,20.37941-37.76839,25.38836-39.54828,3.237-1.15025,21.817-8.38591,26.47388-2.72977,4.59261,5.57813,2.34414,15.8144,5.9668,21.02585A4.90749,4.90749,0,0,0,91.241,33.2874Z"/><path class="cls-2" d="M202.55025,64.18687c-.13337-2.1714-9.60586-6.09011-9.88827-7.62285-3.42958-18.614-10.79878-36.73487-25.55571-49.3088-10.68517-9.10452-22.44416-7.33754-29.95312.37629-13.06323,13.41964-16.73838,30.15928-19.85668,50.94054-.40386,2.69141-9.17878,5.83777-9.291,8.73705-.15,3.87245,9.50816,7.65121,9.36292,12.05772-.063,1.91223,1.38644,11.1457,1.57937,13.079,1.37794,13.80827,11.40373,42.54791,28.67233,50.77734,7.85633,3.744,22.14957.36122,27.3686-4.88688,17.21944-17.31535,19.355-33.94714,20.66243-53.75274a46.80965,46.80965,0,0,0-.39341-7.7637C195.11588,75.5484,202.69531,66.54859,202.55025,64.18687ZM170.802,128.874c-4.41217,2.58233-21.49634,3.59892-24.55149.12119-5.69327-6.48077-9.31535-30.5118-9.881-38.876-.21837-3.2292-.52331-7.78082-.70836-12.95072-.10459-2.92207,6.98817-6.892,7.03176-9.788.03948-2.62259-7.931-7.17476-7.7876-9.45135,1.18015-18.73382.74183-39.86978,8.98338-41.70065,6.15514-1.36737,13.5694-.97129,18.31948,2.61679,3.11523,2.35317,8.6495,16.54781,11.19931,39.15931.25568,2.26736-6.44256,6.47612-6.59269,9.45323-.14791,2.93281,7.94134,7.65672,8.04186,10.358.02845.76437.20032,11.427.2044,12.19972C175.16009,108.74082,174.68037,126.604,170.802,128.874Z"/><path class="cls-3" d="M253.26678,10.81155c-2.04413-3.25954,12.43727-2.785,9.58371-4.61852-9.58371-6.158-15.119-.39255-20.08573-.4775-5.51977-.09442-10.33215-5.82048-21.4437-.08232-2.01864,1.04245,11.32605,2.12955,9.78669,4.43366-3.865,5.78514-5.47522,18.72776-9.8187,35.254-.50129,1.90734-2.67,10.63676-3.1591,12.50186-.45731,1.74377-13.0593,5.07291-13.50563,6.77741-.8535,3.25953,9.12335,10.01423,8.312,13.118-9.27934,35.49636-14.90189,57.15125-16.62825,59.339-1.116,1.41429-13.50883,3.71776-11.122,4.15684,12.30779,2.26415,16.68258-.43125,21.39728-.25807,3.43343.12612,10.125,4.05774,21.6589,1.85131,2.77243-.53037-10.57121-3.07121-10.8624-4.63083-.32283-1.72906,6.94019-51.92319,10.68261-55.42483,2.191-2.05,21.81409-2.80641,25.395,0,4.81168,3.771,11.09676,51.62333,9.62336,54.41015-.90462,1.711-9.57146,3.79944-6.621,4.78761,8.45726,2.83246,14.31857-.85316,17.59809-1.00587,4.99055-.23237,7.19722,4.30207,20.2281,1.89712,3.22715-.5956-9.19057-3.54822-10.19087-5.07581-1.53028-2.33691-6.65086-28.52479-13.33932-59.51171-.71663-3.32008,9.33341-9.14711,8.61025-12.4284-.41249-1.87167-12.65933-6.16117-13.07133-8.002C261.27581,35.3981,256.36293,15.74866,253.26678,10.81155Zm-2.01815,60.89578c-2.867,2.23533-17.57351,4.26755-20.17483,2.15557-1.1712-.95088,6.51941-32.79726,12.23622-32.79726C249.07,41.06564,252.86424,70.44767,251.24863,71.70733Z"/><path class="cls-4" d="M272.35843,6.90107c-1.25387-.35526-2.922-5.402-3.16676-4.47813-.6088,2.29769,1.25009,20.95355,2.58239,22.95434.53377.80159,1.76788-5.73089,2.561-6.83042,2.92887-4.06017,35.62009-2.7066,39.01627-.7339,2.37671,1.38053,3.1497,17.78189,3.16215,40.00981.00148,2.63866-11.79656,6.46411-11.81525,9.17671-.01976,2.867,11.74338,6.99927,11.70429,9.89531-.38169,28.28265-1.60652,56.63517-2.14039,59.40438-.50457,2.61715-10.59682,2.00114-9.13707,3.27664,7.35886,6.43,16.176.13995,18.9632.16487,1.79186.016,6.65128,6.75974,22.92567,2.47308,1.2671-.33376-12.00293-2.26644-11.82492-4.59532.19085-2.49693.0746-31.65245.50858-60.73075.04838-3.24174,11.60148-5.6549,11.66473-8.85768.04939-2.50126-11.34448-7.77-11.28473-10.20724.54247-22.12776,1.4854-38.92752,3.35163-41.12066,2.20708-2.59368,37.67972-5.24171,40.68778,1.2742.5954,1.28971,1.00192,5.99643,1.30027,5.07841.895-2.75406.55581-20.70873-.17581-22.63217-.679-1.78519-.6153,2.5602-1.72549,4.22233C377.94905,6.99088,277.44323,8.34174,272.35843,6.90107Z"/><path class="cls-1" d="M77.8239,160.91638c0-.97794,33.5102,1.06437,61.70843-1.418,15.25233-1.34272,22.04176-6.88766,26.71728-5.32551,10.7576,3.59424,23.37952,5.46752,23.37952,6.90772,0,1.47108-10.201,3.35933-22.04365,7.29363-4.44335,1.47614-9.8573-2.22-27.91956-4.1894C103.19683,160.20842,77.8239,161.99527,77.8239,160.91638Z"/><path class="cls-1" d="M307.34144,160.91638c0-.97794-33.51021,1.06437-61.70844-1.418-15.25233-1.34272-22.04176-6.88766-26.71728-5.32551-10.7576,3.59424-23.37951,5.46752-23.37951,6.90772,0,1.47108,10.201,3.35933,22.04364,7.29363,4.44335,1.47614,9.8573-2.22,27.91956-4.1894C281.9685,160.20842,307.34144,161.99527,307.34144,160.91638Z"/></symbol></defs><use width="381.9543" height="168.71378" transform="translate(0 0)" xlink:href="#Goat_Title"/></svg>